/* XPM */
static char *_e0ba96dbb98423dc97c1d9c831c8268uLMZwSKjwVl92DqN[] = {
/* columns rows colors chars-per-pixel */
"64 64 244 2 ",
"   c #0E1C2A",
".  c #131D2A",
"X  c #1A1E2A",
"o  c #081C37",
"O  c #141F33",
"+  c #15222E",
"@  c #1B242E",
"#  c #06263E",
"$  c #152233",
"%  c #1C2534",
"&  c #16243B",
"*  c #1B263A",
"=  c #1C2B3D",
"-  c #1A2B37",
";  c #1C313F",
":  c #1F3037",
">  c #06202B",
",  c #222C3D",
"<  c #262A39",
"1  c #26313E",
"2  c #31313D",
"3  c #0C2C4C",
"4  c #092848",
"5  c #142643",
"6  c #152C44",
"7  c #1D2E44",
"8  c #142E4C",
"9  c #1C2E4A",
"0  c #163146",
"q  c #1D3145",
"w  c #15314C",
"e  c #1D314A",
"r  c #1D384D",
"t  c #032C53",
"y  c #0B2D53",
"u  c #072D5B",
"i  c #142D53",
"p  c #0C3055",
"a  c #0A335B",
"s  c #133153",
"d  c #1C3351",
"f  c #173859",
"g  c #0F334B",
"h  c #212D44",
"j  c #232D49",
"k  c #262B42",
"l  c #233244",
"z  c #293343",
"x  c #22324A",
"c  c #293A4C",
"v  c #333D49",
"b  c #263B53",
"n  c #323F52",
"m  c #0A3866",
"M  c #143A65",
"N  c #0B3D74",
"B  c #142E57",
"V  c #384858",
"C  c #37414A",
"Z  c #18496D",
"A  c #0B427A",
"S  c #1A4676",
"D  c #224F74",
"F  c #454C57",
"G  c #445259",
"H  c #42464F",
"J  c #4D5865",
"K  c #555D6B",
"L  c #4C5D76",
"P  c #404F62",
"I  c #596778",
"U  c #54666D",
"Y  c #666E78",
"T  c #144A84",
"R  c #1C5894",
"E  c #255589",
"W  c #255995",
"Q  c #1C609F",
"!  c #27629B",
"~  c #366A93",
"^  c #2A68A6",
"/  c #336BA8",
"(  c #3874A9",
")  c #2C73BB",
"_  c #3678B6",
"`  c #2D6DB1",
"'  c #697585",
"]  c #717D8A",
"[  c #4A79AB",
"{  c #1D7BD7",
"}  c #267BC9",
"|  c #357AC5",
" . c #237DDC",
".. c #287CD4",
"X. c #327BD2",
"o. c #1E7DE3",
"O. c #247FE5",
"+. c #407EC6",
"@. c #3584BF",
"#. c #798493",
"$. c #508BB8",
"%. c #6992B5",
"&. c #79AABB",
"*. c #1D82DC",
"=. c #3D84C4",
"-. c #3B84CC",
";. c #3786CA",
":. c #2383DC",
">. c #2887D8",
",. c #338AD5",
"<. c #338DDD",
"1. c #3B8EDC",
"2. c #3A87D4",
"3. c #3291DD",
"4. c #3B92DA",
"5. c #2D89D5",
"6. c #2383E3",
"7. c #2A83E5",
"8. c #2D8DE4",
"9. c #2B84E9",
"0. c #2C8BEB",
"q. c #2588E9",
"w. c #338DE3",
"e. c #348CEA",
"r. c #3C8FE5",
"t. c #2D91E7",
"y. c #3393E3",
"u. c #3A94E3",
"i. c #3494EB",
"p. c #3B95EB",
"a. c #3A9AE9",
"s. c #2D8CF2",
"d. c #248EF2",
"f. c #2C92F4",
"g. c #2C93FC",
"h. c #2B96F8",
"j. c #3395F4",
"k. c #3A96F4",
"l. c #3599F5",
"z. c #3B99F4",
"x. c #3496FB",
"c. c #3A96FD",
"v. c #349AFC",
"b. c #3A9BFC",
"n. c #328FF6",
"m. c #38A2FE",
"M. c #4689C7",
"N. c #438DD6",
"B. c #4494DB",
"V. c #4993D7",
"C. c #5396CD",
"Z. c #659AC8",
"A. c #6A9ECC",
"S. c #68A5DB",
"D. c #74B9DB",
"F. c #6EA3CD",
"G. c #4493E3",
"H. c #4A96E3",
"J. c #449BED",
"K. c #4B9BEB",
"L. c #4999E8",
"P. c #449BF3",
"I. c #459AF6",
"U. c #55A4E9",
"Y. c #46A1F6",
"T. c #4EB2F4",
"R. c #4DAFEC",
"E. c #70B7EA",
"W. c #55AEDA",
"Q. c #5ECEFD",
"!. c #5CC6FB",
"~. c #6CC8EA",
"^. c #77C4E7",
"/. c #64CBFD",
"(. c #6ACBFE",
"). c #67C8F6",
"_. c #75CBF6",
"`. c #63D2FF",
"'. c #6BD2FC",
"]. c #66D0F7",
"[. c #85919C",
"{. c #939CA7",
"}. c #8B99A4",
"|. c #99A3AD",
" X c #9CA6B5",
".X c #ADB3BE",
"XX c #ABB1B8",
"oX c #8EB4D2",
"OX c #B5BCC8",
"+X c #A9B8CA",
"@X c #8ABDE7",
"#X c #BAC1C9",
"$X c #B0D1DA",
"%X c #86C8E5",
"&X c #9AD3E9",
"*X c #86C8F9",
"=X c #9BD5FE",
"-X c #90CCF2",
";X c #A7D8FC",
":X c #B5DCF7",
">X c #ABD3EC",
",X c #B9E8FE",
"<X c #93CDD9",
"1X c #CCD4DC",
"2X c #D6DBE4",
"3X c #CED5E2",
"4X c #E2DFE5",
"5X c #DAE3EA",
"6X c #CCECFE",
"7X c #C3EAFD",
"8X c #DAEAF8",
"9X c #CBF4FF",
"0X c #DEFDFF",
"qX c #D8F6FD",
"wX c #EBEBE5",
"eX c #E6EAED",
"rX c #ECECEC",
"tX c #E8E6E7",
"yX c #F2EDEC",
"uX c #F4EBE7",
"iX c #EDF2ED",
"pX c #E8F2EB",
"aX c #F3F2EE",
"sX c #FAF3EC",
"dX c #F7F9EB",
"fX c #E4EBF2",
"gX c #ECEEF2",
"hX c #E6EDFB",
"jX c #F2EEF1",
"kX c #F2EFF8",
"lX c #EDF2F4",
"zX c #E4F4FB",
"xX c #ECF4FB",
"cX c #E5FDFF",
"vX c #ECFCFE",
"bX c #E7F5F4",
"nX c #F4F4F4",
"mX c #FAF5F4",
"MX c #F5F9F5",
"NX c #FCFAF5",
"BX c #F4F6FA",
"VX c #FAF7FA",
"CX c #F4FBFD",
"ZX c #FCFDFD",
/* pixels */
"ZXnXnXZXgXgXZXrXMXVXwXVXNXwXNXmXuXNXMXpXCXiXbXvXcXcX0X,X;X*XE.R.P.a.4.3.a.a.a.T.T.E.;X7X9XcXcXbXbXMXwXNXMXgXZXmXjXZXkXjXVXyXVXCX",
"nXVXVXjXMXVXnXZXMXnXZXyXnXZXsXNXVXaXaXnXCXCXCXzX$X+X%.%.$.$.M.N.V.B.4.3.3.3.t.3.4.;.V.C.Z.oX,XqXcXcXCXaXZXZXyXVXZXtXCXZXmXNXnXbX",
"VXgXVXBXnXVXnXNXyXMXVXnXnXMXmXyXnXaXZXZX5X+X] V n e - r f f D E ~ _ V.V.4.3.8.3.3.a.3.,.;.=.=.C.@X,XcXvXlXaXdXdXmXuXMXMXnXmXVXnX",
"VXMXgXZXMXjXZXrXMXZXrXMXCXeXVXBXZXZX#XY V $ o 7 & 7 q 6 8 q 6 3 t m A R @.4.B.u.y.t.i.y.y.i.a.,.;.$.Z.,XvXcXMXpXwXNXnXbXZXnXyXZX",
"nXVXVXrXmXVXwXZXMXrXZXnXgXZXBXCX+XK @ O = x x q r e q q 0 0 w w f i i i p Z ! M.B.a.3.t.i.t.y.i.y.,.-.M.S.;XcXvXMXwXCXBXyXVXZXtX",
"VXlXnXZXaXrXZXaXMXnXBXCXVXCX1XK % $ k j 7 6 e x 6 7 q q q 8 0 0 9 9 j j 7 5 s m ! ;.J.3.>.i.i.t.i.w.i.w.,.V.D.9XcXCXhXVXZXsXjXZX",
"MXCXjXmXNXMXnXmXMXZXbXCXCX}.- % l ; ; q 7 7 7 5 7 h 7 = ; q q ; k , k j j 9 9 s p m ^ B.u.w.p.j.t.i.i.e.i.<.;.M.-X0XCXiXnXdXmXaX",
"nXnXCXnXMXNXrXVXnXlXCXeXY   1 ; - ; q 7 7 h h j 7 h h h = = ; 1 < , h h h j h h r p a T M.H.<.i.i.t.i.i.i.i.i.3.=.F.6XvXzXnXpXdX",
"ZXNXrXZXjXMXZXiXlXZX5XH + l l ; ; ; ; q 7 7 j h j j j j j 7 7 7 7 q = q j 9 j j 9 9 8 y m ^ V.4.3.l.8.i.e.w.i.y.i.3.C.=XvXbXnXNX",
"rXVXZXrXCXCXgXCXCXfXC + l l - q ; q ; ; 7 7 j h 9 9 9 9 9 9 h l 6 0 q 7 j j j 9 h 7 h e 3 t E =.3.3.u.<.w.i.p.y.j.i.u.;.@XvXbXpX",
"ZXMXjXVXrXnXVXCX5Xv   z 1 7 q e 7 7 q h , q 7 x 9 9 e q 9 7 = 7 q e e 9 9 j j k , k = 6 r g 0 M @.C.,.y.a.y.>.l.8.i.8.y.| D.cXCX",
"nXnXnXCXVXxXCXfXJ $ 1 ; 7 q q 7 j 7 h h 7 h q 6 9 6 6 6 7 ; ; l = 7 9 e 9 9 h k , l 1 = 0 ; - w a ( 4.3.>.3.>.<.3.3.3.y.<.@.F.6X",
"mXjXZXyXZXxXxX]   1 7 l 7 7 & e 7 h 7 7 h 7 9 j 6 e x q 7 - : : ; q 7 6 e 9 8 9 j h , h 7 7 8 0 p t V.T.T.T.T.R.R.R.R.R.R.W.Z.^.",
"ZXnXnXBXbXCX X. q l 7 7 q 7 x 6 q 7 7 h h h j 9 d i g 3 4 8 0 0 6 q j 9 6 q e q 7 j x h 7 j r 6 4 ~ _.'.(.`.(.'.'.'.].]._._.%X,X",
"wXVXVXjXZX1X- = l = 7 9 9 c 6 x 6 e 7 , h 7 j 9 4 f S T W R R N a d j j l 1 1 = l 7 9 9 6 q 7 0 D D.(.!.Q./.!./.(.(.).).~.^.:X0X",
"ZXrXBXBXVXJ $ = 7 q q 9 7 6 x 7 e 7 q 7 = 7 i u E / +.| X.X.X.| ~ M 5 5 k < < 1 7 6 9 6 q 8 = g F._.(.`.Q.Q.(.(././.'.'.D.&XcXMX",
"NXnXgXZX|.+ z 7 7 7 7 q 7 7 9 h j h 9 e - s m ^ X...........{ ) [ oX+Xc + z ; q 0 q q ; r 0 # $.*X).)./././.(.(.(.).].~.<X0XVXNX",
"rXmXCXeXv $ l 7 q 9 9 h j 7 7 j k j d 6 w f ` >.{ O.O.O.{ >.;._ oXvXvX5XF + c 0 e 0 q q 0 # ~ %X].].(.(././.(.(./.).~.^.,XvXMXuX",
"ZXnXVX[.+ ; = e e 7 h 9 7 7 9 h 9 j j e a ^ |  . . .O.:. .5._ ;XCXhXvXCXpXK + 1 7 h l 0 g Z _._.].)./.(.(.(.(./.)._.D.,XcXhXVXZX",
"nXCXfX1 , l 7 q 7 e 7 7 7 l 7 9 9 5 9 y ! ;.} { .... .:.} ) ;XvX8XCXbXpXMXpXV + , j q g a D.~.!.].Q.)./.(.(././.(.D.;X0XqXCXBXgX",
"jXCX{.. , = q 7 7 j 7 q 7 q h 7 7 i i S ;.*.>.{ *.>.:.>.) @XcXxXVXVXBXBXlXVX5Xv < = d t $._.'.Q.Q.Q.Q././.Q.].].~.&XqXzXnXMXnXMX",
"ZXgXv , z 7 q e 9 h 7 h 7 j 7 7 7 d u _ >.{ { :.>.*.:.} C.0XzXVXBXhXZXVXnXjXZX#X- 0 4 ~ *X)./.`.Q.`././././.].~.^.9XzXBXZXiXMXZX",
"VXOX+ , 7 7 e 7 7 e 7 h h 7 h q 7 4 R X.o.6.6.6.*.*.*.| :XvXCXnXnXZXeXkXZXmXwXNX&.> D ^.~./.'.!.).'.(./././.~.^.,X0XBXVXrXZXVXtX",
"CX' . l l 7 x 9 9 9 h q 7 j h 6 q p | 7.o.o.q.6.*.8.} S.vXVXrXnXmXtXZXVXyXZXnXpXMXI &.<X^.~.D.D.^.D.^.).).E.^.&X0XCXjXjXZXgXVXZX",
"8Xc l , 7 7 e 7 7 7 7 h 7 q 7 q 6 D X.6.O.O.9.9.q.>.) ;XxXjXZXsXsXVXnXBXVXlXmXmXjXBX8X6X6X7X,X7X:X>X:X&X&X<X$XcXZXaXNXmXiXMXNXiX",
"OX= = 7 7 q x 9 7 7 7 h h 7 h e y W >.9.O.O.s.9.6.5.$.6XvXMXsXmXsXZXlXbXCXlXsXmXsXnXBXxXCXBXCXCXMXvXvX0X0XcXqXCXaXsXmXNXiXiXZXMX",
"[.$ 7 l q 9 7 7 7 h h 7 7 h q w m _ w.O.O.9.6.q.q.| F.cXxXZXtXNXNXwXZXCXbXCXnXaXZXsXVXZXhXxXZXpXxXZXgXCXvXpXVXgXuXZXjXrXZXVXlXCX",
"I $ q 7 9 q 9 e 7 7 h 7 7 l 6 s N =.7.9.7.9.9.q.0.) @XCXzXlXZXaXaXNXrXbXZXbXnXMXrXVXxXgXZXBXiXNXBXlXZXnXpXMXgXVXZXtXZXVXrXCXBXnX",
"P & 7 7 7 e 9 e h 7 q = l 7 7 3 T -.:.q.9.0.7.8.q.;.>XxXBXBXiXZXVXgXCXVXxXBXBXVXVXMXVXCXiXnXmXsXBXVXxXnXMXlXCXBXlXZXrXnXNXrXCXMX",
"V = 7 q 6 e 7 7 7 h , q 7 q q p R 1.*.q.0.0.q.q.0.-.>XZXxXBXZXiXnXxXVXVXxXVXVXjXMXnXlXMXMXMXmXmXVXbXbXnXnXjXmXVXCXnXVXMXmXmXnXnX",
"x q q e e 9 7 7 h 7 7 = 7 q 7 3 ^ w.6.t.8.0.q.d.e.+.:XvXxXCXlXnXiXZXiXnXVXsXnXmXnXZXnXiXVXCXnXmXuXaXZXnXnXZXaXnXZXpXVXBXjXVXCXlX",
"l q = l 7 6 q q 7 l h = 7 q q t ` 9.8.q.9.0.d.d.e.+.7XhXvXCXrXNXZXwXZXNXyXZXyXmXZXrXnXCXxXlXZXyXNXNXeXCXVXuXVXdXpXZXnXjXZXMXnXZX",
"c 7 7 q 9 7 e q h 7 7 l q q q u ) w.8.0.0.s.s.s.i.-.>XcXxXnXZXnXyXZXgXVXVXrXVXNXyXZXBXfXZXVXiXZXsXjXZXxXrXZXaXMXZXpXCXZXsXmXVXgX",
"C - l 7 7 7 9 7 7 h = q 7 q q p ) e.e.8.s.s.s.s.j.| -XvXfXMXVXmXVXnXVXxXxXZXsXmXVXyXBXZXxXvXNXuXmXCXfXVXVXmXNXaXaXZXnXnXVXsXVXVX",
"V = l 7 e x 7 9 h 7 h q 7 q q y ) e.0.0.s.s.s.s.0.;.@XcXvXMXaXVXmXMXVXnXMXaXsXsXsXaXCXBXrXlXNXaXnXMXMXmXkXjXsXmXMXnXnXnXMXMXVXVX",
"I = = l 6 7 q x 7 7 q = 7 q l y ` G.0.0.f.f.s.f.0.r.Z.cXxXrXZXiXsXZXlXlXZXaXaXdXuXNXnXbXZXCXiXNXaXaXNXmXVXVXmXmXCXgXNXnXgXVXnXgX",
"#.$ q q 7 7 e 6 l 7 h h = q q y ^ G.s.0.h.d.h.f.j.4.C.,XvXNXrXNXZXtXZXBXpXZXnXiXZXrXBXVXgXnXsXuXNXNXwXVXVXrXVXmXfXZXnXiXZXiXnXZX",
"+X+ c = 7 e 7 9 9 7 h = = q = 3 R G.i.s.g.d.g.f.j.w.;.=XCXrXZXaXnXZXiXCXCXbXCXlXeXZXZXvXZXZXMXmXNXiXZXlXBXZXBXVXVXfXMXZXrXaXZXlX",
"2Xc = = q x 7 x 7 7 q h = l q 3 T N.p.f.g.g.l.i.j.y.w.U.cXlXVXmXmXsXVXMXnXMXlXMXZXgX2X2X5X4X2X4X4X4X4X5X5X5XqXcXvXnXVXlXMXZXaXMX",
"ZXU + q l 6 7 e 7 7 = l h ; l 8 m M.e.g.g.g.j.f.j.j.y.N.;XCXgXZXZXjXVXMXaXZXnXlXZXK X 2 < < 2 < < < 2 z 0 f %.0XzXZXnXnXNXnXaXNX",
"CX{.+ 1 ; q e q h e h h 7 , 7 q u ( k.x.n.c.c.j.f.l.f.u.S.qXCXgXkXZXgXkXZXrXMXZXOXX < < < , * , < * * 8 t ( $.@XcXlXVXCXrXBXNXwX",
"ZX1X< , q * q q 7 7 7 7 = q q 7 5 E p.c.x.n.x.k.b.j.b.z.N.=XcXxXBXgXZXVXnXMXVXgXH X < < , h 7 7 k 7 8 t / L.u.M.>XvXzXgXZXgXdXNX",
"fXZXI   z x 6 x 9 7 h 7 l 7 q q 9 M X.c.l.j.v.j.x.b.x.c.K.M.7XcXxXVXjXyXZXrXZX#.X 1 % < * = 7 = 5 d u ^ K.a.P.G.C.;XBXCXlXMXaXuX",
"BXZX.X< , 7 7 7 h 9 q h 7 h = h j y ^ K.l.x.l.x.x.x.c.c.c.B.S.7XzXlXVXnXnXZX|.. % * , = * * = e 3 t ^ L.l.v.z.z.1.S.6XvXMXnXMXMX",
"VXVXxXJ % q 7 7 9 q h 7 q 7 q h h d M M.u.l.j.l.v.v.x.x.c.a.V.S.6XvXCXBXVX.XX < , % < < k 5 5 6 m / U.j.v.v.n.b.I.1.E.qXcXbXMXZX",
"rXmXCX.X$ z h 9 7 e 7 7 , q 7 7 7 x p W L.z.m.h.v.g.b.c.b.j.J.4.F.6XcXvX|.+ * < * k * k j 5 p M M.H.z.j.b.x.b.x.v.p.N.-X0XCXnXpX",
"ZXrXnXZXK $ l 7 e 7 h 7 7 7 7 7 h 7 8 a | z.m.f.v.v.x.v.v.v.l.a.,.C.*X[ o 9 & k k j 5 5 u N / H.P.c.c.j.l.b.h.v.v.v.p.M.,XzXxXNX",
"aXmXCXCX3X* l h 7 9 7 7 q 7 7 7 = = 7 s N B.u.a.v.g.l.v.v.x.v.x.b.p.B.+.W S M M u u S E ` V.P.k.v.g.x.k.b.x.v.v.v.h.k.p.C.9XCXaX",
"MXmXMXgXZX[.. z = h l 7 7 x 6 x = 1 = x t T V.G.z.m.l.j.x.v.b.k.l.z.z.P.K.H.B.N.2.1.G.P.z.j.l.x.x.l.b.l.x.x.c.c.c.x.m.j.1.E.cXbX",
"nXVXjXCXxXVXK + l = x 7 7 j 5 7 h h = 7 i y T V.G.i.j.h.v.x.k.b.l.x.l.g.j.v.k.v.b.k.k.v.v.v.v.v.v.b.x.k.v.v.c.I.c.b.h.m.b.-.<XvX",
"sXnXZXeXCXZX3Xv < , $ q h 9 x x 7 9 x 6 x f 4 S C.K.I.g.g.v.v.j.v.v.v.v.v.j.j.j.c.l.v.k.x.x.v.v.x.g.v.v.h.v.v.k.k.t.m.h.e.G.C.>X",
"ZXVXrXZXgXxXZX#X% , l l 7 h x 5 9 9 9 e 7 e 0 g M ` K.I.v.v.x.l.v.v.v.v.v.v.b.b.g.k.x.v.b.v.x.x.b.v.v.v.v.g.v.l.m.z.h.l.I.+.%.6X",
"VXnXZXnXVXBXgXZXXX@ , 1 = 7 e q 7 7 6 9 j 7 x x 3 m R -.K.z.n.j.v.x.l.v.v.v.x.x.x.b.x.x.c.c.c.v.x.g.x.b.j.l.l.v.d.l.l.m._ %.8XVX",
"iXnXZXrXCXVXnXlXZX|.@ = l l 7 7 7 q x 7 j j h & 9 8 t m ! N.K.I.z.l.l.l.b.l.v.v.b.v.c.x.x.x.c.k.m.v.b.z.z.z.p.i.Y.Y.;.R %.0XVXuX",
"ZXZXrXZXiXaXVXMXlXCXXX@ = l = 6 h 7 h l = 7 x x j x e w y m W | G.J.P.z.p.j.j.k.x.k.v.v.b.b.x.x.j.l.g.j.l.P.L.V.[ S f +XvXbXBXCX",
"lXaXZXaXnXZXrXVXBXlXCX#X, + z 7 h l = = , 7 x 6 j 7 , = e 8 y u A Q _ N.H.K.I.J.k.z.k.c.c.z.z.k.z.K.Y.P.G.=.Q S # L fXZXpXnXxXgX",
"ZXnXnXNXnXaXNXrXnXnXeXZX2XG $ l = , l 7 7 8 w 0 9 7 h k , h q e g t u m D ! ( +.M.H.H.G.L.G.B.V.$.( / E Z t # r  XCXCXuXNXsXnXVX",
"lXnXaXNXaXuXZXmXMXZXCXgXCXvX' + < 1 h = e q 6 e e 7 h k k 1 1 * q e e e a p t u N m N T T T A N u y i i # ; Y 5XZXfXmXNXsXsXkXZX",
"nXMXVXrXNXZXwXZXnXrXVXlXfXCXCX#XF X $ b w w d 8 7 7 l q 7 = 7 h = 7 7 6 8 e d d d 8 8 8 5 9 7 8 x b # & K #XZXCXxXxXMXMXaXVXZXgX",
"CXMXiXZXnXwXZXrXnXZXrXCXZXlXMXZXeX{.n o 9 d 0 q q - 7 q 7 7 7 9 l 1 ; = 7 h 9 9 = h h , l 1 < < O & L OXCXCXVXsXlXCXpXrXZXjXgXCX",
"nXjXVXaXMXVXrXVXMXnXVXaXlXZXlXMXCXZXfX}.V   $ z z l q q 6 9 e x 7 , h k h h 7 7 c e 7 q q $ + 1 Y OXZXBXnXNXwXmXZXgXCXZXmXNXVXrX",
"MXnXCXnXnXVXgXMXVXiXNXnXNXaXNXnXBXlXBXZXxXXXK < .   $ = j j x x , h , h l l l k h & $ $ = P {.2XZXZXlXgXVXmXsXmXVXnXjXnXmXnXMXmX",
"VXMXaXVXmXjXZXgXnXZXaXZXaXuXNXnXgXVXVXuXyXZXZX5X X#.F z & & & o = & o & & & $ * z F Y |.5XCXZXCXsXnXiXCXBXgXZXmXaXZXCXCXmXnXMXNX",
"rXNXVXiXCXCXtXZXMXrXZXaXsXZXwXsXZXrXmXZXuXyXZXaXZXBXhX2XOX{.] ' I L L ' ' #. XOX3XVXZXZXZXaXwXZXmXsXZXbXBXZXjXmXZXrXCXVXlXZXnXrX"
};
