/* XPM */
static char *_936c46f1b184a2adee87d767127df5bgNmaCE1d3JGXidFi[] = {
/* columns rows colors chars-per-pixel */
"64 64 256 2 ",
"   c #4E1D00",
".  c #6A1D00",
"X  c #5B290A",
"o  c #5A3718",
"O  c #57290B",
"+  c #642C0D",
"@  c #6C2D0B",
"#  c #672607",
"$  c #732C0B",
"%  c #792B08",
"&  c #69320C",
"*  c #74340E",
"=  c #7C340D",
"-  c #692D14",
";  c #782D13",
":  c #653413",
">  c #6B3213",
",  c #68381B",
"<  c #743313",
"1  c #743B15",
"2  c #7B3B15",
"3  c #7C351A",
"4  c #7C3B1A",
"5  c #773618",
"6  c #693A24",
"7  c #7D3C23",
"8  c #7C421B",
"9  c #784319",
"0  c #6C441B",
"q  c #6B4827",
"w  c #794826",
"e  c #785128",
"r  c #7B5536",
"t  c #734A2E",
"y  c #7A633D",
"u  c #862D0B",
"i  c #84330D",
"p  c #88360C",
"a  c #98370E",
"s  c #842D13",
"d  c #843414",
"f  c #8B3413",
"g  c #843B14",
"h  c #8B3B15",
"j  c #833C1C",
"k  c #8C3D1B",
"l  c #88351B",
"z  c #943414",
"x  c #943C15",
"c  c #943D1A",
"v  c #9B3B1A",
"b  c #9A3A15",
"n  c #952F0E",
"m  c #A53C1A",
"M  c #A3390F",
"N  c #863E22",
"B  c #953C21",
"V  c #A33E21",
"C  c #8D4315",
"Z  c #83421C",
"A  c #8C431B",
"S  c #884919",
"D  c #94441C",
"F  c #9B431C",
"G  c #944B1D",
"H  c #9B4B1C",
"J  c #974415",
"K  c #98531C",
"L  c #90420F",
"P  c #A44B1C",
"I  c #AA4B1D",
"U  c #A6441A",
"Y  c #A4541D",
"T  c #A7571D",
"R  c #B54C1B",
"E  c #844323",
"W  c #8C4423",
"Q  c #844B24",
"!  c #8D4C24",
"~  c #854C2B",
"^  c #8C4C2B",
"/  c #87442B",
"(  c #934523",
")  c #9B4523",
"_  c #934B24",
"`  c #9C4C23",
"'  c #934C2A",
"]  c #9C4C2A",
"[  c #974529",
"{  c #8C522C",
"}  c #87542A",
"|  c #945325",
" . c #9C5323",
".. c #94532B",
"X. c #9B542B",
"o. c #9C5B2C",
"O. c #995B27",
"+. c #8A4C32",
"@. c #934D32",
"#. c #8C5534",
"$. c #885936",
"%. c #945432",
"&. c #9B5533",
"*. c #945A34",
"=. c #9C5B33",
"-. c #945C3C",
";. c #9B5C3B",
":. c #99553B",
">. c #A34524",
",. c #AB4524",
"<. c #A44C23",
"1. c #AB4D23",
"2. c #A44C2A",
"3. c #AC4C2C",
"4. c #B44B25",
"5. c #A35324",
"6. c #AB5325",
"7. c #AA5B25",
"8. c #A4542B",
"9. c #AB542C",
"0. c #A35B2C",
"q. c #AC5B2C",
"w. c #A45A25",
"e. c #B3542C",
"r. c #B35C2C",
"t. c #BC5B2B",
"y. c #B85726",
"u. c #A35532",
"i. c #AC5532",
"p. c #A45C33",
"a. c #AB5C34",
"s. c #A45D3B",
"d. c #AA5C3A",
"f. c #A9573A",
"g. c #B45533",
"h. c #B35D33",
"j. c #BC5C34",
"k. c #B25D3A",
"l. c #BA5634",
"z. c #A64F31",
"x. c #9E612C",
"c. c #8A623B",
"v. c #9D6335",
"b. c #9C623C",
"n. c #96653B",
"m. c #AC622D",
"M. c #A5632B",
"N. c #B3622D",
"B. c #BB652A",
"V. c #A46234",
"C. c #AC6333",
"Z. c #A4643B",
"A. c #AB633B",
"S. c #AB6A3C",
"D. c #A86A37",
"F. c #B36433",
"G. c #BB6333",
"H. c #B36A35",
"J. c #B3643C",
"K. c #BB643A",
"L. c #B46B3B",
"P. c #BB6B3C",
"I. c #BA6B34",
"U. c #A9703E",
"Y. c #B3723D",
"T. c #BB723E",
"R. c #BB7435",
"E. c #C25B2C",
"W. c #C25831",
"Q. c #C5642D",
"!. c #C26C3B",
"~. c #C56735",
"^. c #C77538",
"/. c #D06F37",
"(. c #9B5E42",
"). c #8E5C41",
"_. c #AB5E42",
"`. c #8B6A46",
"'. c #9C6443",
"]. c #986847",
"[. c #9B744C",
"{. c #9A7252",
"}. c #A46442",
"|. c #AC6441",
" X c #A36B44",
".X c #AC6B43",
"XX c #A56C4A",
"oX c #AC6C4C",
"OX c #A46649",
"+X c #B36C43",
"@X c #BC6C44",
"#X c #B36C4A",
"$X c #B86846",
"%X c #A3724C",
"&X c #AC734D",
"*X c #AB7547",
"=X c #B47344",
"-X c #BB7343",
";X c #B4744A",
":X c #BC744B",
">X c #B57B4B",
",X c #BB7B4B",
"<X c #B97944",
"1X c #AD7353",
"2X c #AB7A55",
"3X c #A87858",
"4X c #B47451",
"5X c #B57C54",
"6X c #BC7B53",
"7X c #BC7D5A",
"8X c #B67858",
"9X c #B06D53",
"0X c #B27E63",
"qX c #C16D44",
"wX c #C56B47",
"eX c #C47445",
"rX c #C3734C",
"tX c #C37B4C",
"yX c #CA7B4C",
"uX c #C77844",
"iX c #D27A45",
"pX c #C37C53",
"aX c #C77A56",
"sX c #D37E54",
"dX c #BC834D",
"fX c #AB815C",
"gX c #BD8354",
"hX c #BC825C",
"jX c #B4845B",
"kX c #BB8B63",
"lX c #B88663",
"zX c #BE906E",
"xX c #C7834C",
"cX c #C38253",
"vX c #CB8353",
"bX c #C4855B",
"nX c #CB835C",
"mX c #CA8C5D",
"MX c #C68A59",
"NX c #D38455",
"BX c #D58A5B",
"VX c #D5925B",
"CX c #D58447",
"ZX c #E38F5E",
"AX c #C48B62",
"SX c #CB8B63",
"DX c #C68765",
"FX c #D58C64",
"GX c #CA956A",
"HX c #D7946A",
"JX c #D99A75",
"KX c #CA9371",
"LX c #E69B6D",
"PX c #D9A479",
"IX c #E6A474",
"UX c #DDAA85",
/* pixels */
"q r t t q y y `.q 6 o r t e q r r 6 , fX`.c.q q o o q o XX].~ 9 c.$.~ Q *.w Z } %Xc.e , jXjXe c.} 0 0 $.$.q , $.[.q e 0 e 0 0 e ",
"`.fX].`.`.`.y `.t 6 $.-.{.fX{.].].$.fXfX3XfXfX).y t {.fX0X8X}.#.%X[.5X4X'.b.jXhXfXlXjX XjXjX%XkX].*XfXfXlXzXlX7X3XfXc.3Xn.[.1X%X",
"w ].#.7 o r , 5 6 6 6 6 +.].$.w > N Z.> & *. X< 6 - 3X+.N 5 N W 4 #.(.@.j j &XhX3 E N N 4 N #.2XQ 1 fX*X/ +.@./ %.&.*.kXOX7XXX).",
"+.-./ t O } X @ O 6 - w e -.5 7 5 :.b.1 + } oX@ - 6 ).6 N $ ; $ < N +.@.N 2 *.%.l 3 @ $ @ $ 1 b.! @ 2Xc.# ; # ; ; # # %X1XOX~ #.",
"*.;.& : O $.;.9X, - o 9 $.].> > , 1X&X> 0 n.5XQ o O 0X'.~ + 1 Q @ * Q ;.Z 4  X*.E j < 3 < 1 0 $.9 1 kX`.+ < - @ 3 @ + `.w   , ].",
"XXAX2X$.$.[.7XJX9XOX$.{.3XlX].'.2XkXjXn.jXGXJX5X].r UXUXKX1X&X1X4XoX:X-X=.o.bXSX;X#X4X7X7XbXAXKXXXn.kXlX].XXOXOX}.4X{.lXKX0X3X3X",
"^ *.} w q w j 9X+.).$.lXw } +.~ '.^ ;.bX=.| A.V.OXXX:.8X;X:.;.{ =XL.F.r.N.H.@X@XaXpX:XpXDX7X7X4Xs.}.&XjXJXKX(.7XJXKXkX7X9XKX3X].",
"Z Z # , X + W $X- O q fXO : & X > ~ 8 b.A 2 _ Z ^ 1 * E @.$ = = G H 6.I I I I x p.d.( [ +X( j = ; $ @ < 1X7X# $ oX#., 7 - # + - ",
"1 5 : - X X B 9XO - 6 {.o X X X X ^ 9 { E g W W } 1 @ E oX@ 1 * C G 6.6.I 6.e.P K.8.8.) d.k k % % % * @ %.4X# @ ..b.< & < # - # ",
";. X-.#.t +.9X8X- 6 6 {.).$.+.+.(.%.~ %X5X}.|.%.*.* 1 '.KX;.%.;.=XX.a.9.6.J <.H @Xa.) ) @X] A  .W j %.b.oX4Xg * |.6XZ 8 Z / 5 ~ ",
"hXAX$.).0X3X).:.6 t 6 r ].lX3XOXOX(.1X9X4XDXFXsX X X8XpXHXKXhXlXDXhXSXoX#X_ A.A.:XrX@Xk.@XyXFXHXnXp.&XGXSXJXFXbXFXnXSXHXHXKX0X8X",
"w '.5 - t ).3 7 - 6 o O : 3X+.3 E ;.;.4 2 ' _.] S { p.' @.j 4 5 : + +.4 < * ;.A u.f x c c F tXtX8.N b.5X_ u.X.a.>.9.+X6Xp.}.8 ~ ",
"E  XN 7 ).].# 7 - 6 X : : oX@.' N &.(.j l s.k.[ Z { X.[ &.A A < < 6 %.3 N s ] % B z z z v b @XrXc ] A.A.c 9.d x m l.a.8.f ] $ Z ",
"w  X< # / ).  + 6 ,   : w #X@.' j _.] N 5 ] _.l @ Z ! 0.o.Z Z = ; ; _.d d ; f.= f f s z c f d.rXv 2.:X#X` ` x J U 6.r.5.2.2.g X.",
"kXkX'.9X3X3X$.t r 6 [.c.c.5X%.}.4XSXhX'.;.aXaXXX*.5XGXgXdX&X*Xv.#.;.SXs.|.A.nXaXaX$X_.d.#XoXpXpXu.2.:XmXcXcX=XC.w.T.H.eX@XA.Z =X",
"e }.@.+.#.`.3X].t 6 $.c., Z / N =.hX4X%.%.%.^ _ v.Q =X;XFXcXcXmX=X=.L.h.K.h.h.rXJX|.$X#XaX%.=.+XrXsX+X X>XcXT.P.T.H.L.T.P.L.X.` ",
"j % l B l N 4 %.l ; - -.@ ; l ; l N N l B c B z l d k D @X2.6.9.9.b a e.Q.M n a >.s s ; f.d x F z >.f ` 0.+X<.K.P.q.r.t.e.t.P 6.",
"j d s c s N N @.; d w -.# ; ; s s N N W [ B z z x f c l i.>.,.6.!.v m y.Q.E.U a 2.l z l f.u ) x f F h D a.=X9.I.I.P.1.j.6.6.9.6.",
"#.*.*.%.} ;.s._.s.:.} 2Xc.w ^ @.! ^ 4 #.%.%.B ] _ X.] ( A.J.H.m.:XJ.0.5.H.N.H  .aX&.W s.6Xp.+XX.X.=.S *.>X=XS O.D.<X0.C.5.G  .G ",
"KX%XQ ].[.lX_.aX#XZ.1X%X%X5X4XsX#X4Xb.n.'.DXaXJ.Z.6X|.u.p.-XcX-XBXnXvXY.H.C.Y.tXaX+X.X8X#X#XSXSX6XgXjX*Xv.dX>X,XmXHXmX=X=XA.Z.v.",
"8 ! * 9 9 %.v ,.B ] ( k W _.( c k s.] E ! p.2.v C +X) >.f ` G.r.H 9.H.q.a.5.F.J.3.>.] ] i ( $X|.8.[ pXoXD `  .=.` a.+X.XA.u.^ Z.",
"' =.9 Q w V.g.l.>.) D D ] ] c 2.B $X&.E %.&.F F A C.k i.F F 9.P u P 0.D 9.D X.` i.3.D ) D [ :X' % d $X] B h = g X.X...6X$Xs.%.XX",
";..X%.U.9 &Xo.` 8.9.p g 2.D >.( &.;X;.8 %.Z.2.D | *.2 ( j C <.C h _ ;XA.Z.A.+XC ` 8.0.0.X.' 5X..3 l 1X(.j $ % = S o.v.MXZ.| } %X",
"aX|.HXAXjX5X=X@X9.a.p.C.$X$XD ( s.#.Q *.%.X.D = G ..! ! _ p.wXF.m.L.pX.X:XFXHXnXpXFXBXtXgXGXJX:.@.oXDX7X}.#XL.,XmX&X| ! 1 * 1 w ",
"N A _.|.p...=.pX3.g.) pX@Xh.) c &.2 @ %.&.] a.h i C * 8 f.a.i.j.P.h.$X) ] f.i.k.tXT.F.-X=XbX6Xb.4XOX%.^ oXFXk.@X-XL.D 8.D D D k ",
"j l c [ A | Z D U ,.x A.` h.F z u.$ E Z ] @X8.0. .] j g ] z.9.9.` u.k.k.z.2.v x h.F.F.C.0.A.=.@ < w 4 2 X..X) 9.X.p.H j.P <.h.1.",
"2 ( N k Z _ W B >.3.h .X..o.` h D _ ! Z 8.@XC.q.!.J.X.! 8.i.K.0.8.K.i.i.) 2.>.>.F.q.F.H.L.V.X.# . # 4 E =.pX2.` 8.C.h.h.I 6.U 1.",
"..:.] u.=.s.9XaX$Xk.s.AXU.v._  .C A x.1 | @XK w.e.<.X._ ] 9.a.J _ 0.k c d x 2.<.P.q.P w.Y.S.#XX.%.{ ^ Z.nXaXk k X.tXH.8.5.6.6.G ",
"n.jXbX7X*.1X4X9X|.&.n.jX*Xn.U.=X:X,X*Xv.Y.H.R.m.q.7.A.V.J.A.V.S :X.XX.0.a.L.yX@XuXyXF.q.<X,XcXMXmXJXFX>Xp.p.=XV.=X*X>X<XL.T.T.Y.",
"e *.;.j > '.;.w w : & e } } v.v.Y. .D.M.Y.m.I.B.N.q.C.o.0.8. .G p.X..X+XD.X.T.F.r.r.I 5.q.C.D.=XM.a.,XG D h g X.| O.x.x.O.K H.M.",
"e n.V.W / #.-.q o     : } o.v.=XxX7.vXT.~.~.y.y.Q.Q.m.H <.<.H 5.d.` |.X. .M.eXP 6.M M I 1.6.q.H.7.m.T.5.J p ] _ ..| Z.S.F.5.<X-X",
"9 cX' d ; / }.w r ,   0 | X.Z.=XP.q.VX!.B.B.Q.y.7.G.9.L F P p F 8.` pX .C N.yXH 4.M 1.6.P 6.q.m.h.r.yX .i D C 8.g S p.C.8. .NXH.",
"S.D.p x u.[ }.5X].).zXkXDXW +X` H F.eXY.L.D.q.P o.M.A a.J.C.S.<XS.o.DXA.Y.xXxXR.tXBXvXxXMXxXvXeX-XyX,XpXpXS.*XgXgXdX,XH.0.a.#XS.",
"V. .Y 6.k.|.! S.s.< -.%X6XX.p.u.<. . .| Y.Y.F.w.M.U.h H 9.a.S.mXM.D.Z A S M.Y.Y.vX+XV.S.dXx.0.q.a.5. .S.mX>XU.v.dXdXuXN.7.r.a.V.",
"L.7.P r.<.` Z | A._ { *.D.8.9.` P F M.M.tXT.uXq.0.<X<.b k.K.p.pXF.eX` A p K M.Y.eXN.7.T H.H P ,.P P J F -XL.<Xx.D.H.B.y.I P P Y ",
"F.9.J Y H C S | S.0.Q b.0.F H ` 5.h q.C.xXP.H.H C.eXJ v 1.k.0.cXt.K.qX` J w.V.Y.~.r.7.w.N.C <.1.6.H b J cXx.=XM.uXI.^.B.Y T T Y ",
",X=XI.I.H.D.V.=XH. .*.;X,XA.V.-X-Xp.v.U.VX=XM.H.dX=XA ` ` 8..XSXH.K.J.0.O.V.&X>XR.M.M.R.Y.v.S.S.V.=.A.X.bX*XdXD.xXM.m.m.O.x.x.K ",
"=X-XR.I.M.D.p.,XH.N.S.;XtX+XcXcXtX,X>XdXMXY.C.,XxX,XcX+X@XA.AXgXK.NXL.Y.Z.gX5XcXCXCXR.dX=XMXIXMXhXS.SXvXmXcX<XmXxXxXuXyXxX<X=XdX",
"O.m.B.B.T O.r.G.y.Q.6.r.a.G uXH.F.C.<XM.M.7.w.w.K m.T.m.G H | C L L.T T K >XC.K.^.B.T 7.K M.MXD.C.G +XC.F.B.Y T B.^.~.^.~.q.M.M.",
" .N.^.^.N.K I.B.E.Q.y.q.a.0.CXN.H.H.dXO.O.Y 7.7.T m.T.D. .G S 9 S H.Y Y O.S.K.H.^.Q.M.F.K M.VXO.A.H L.m.I.6.B.y.B.B.B.I.G.F.<Xx.",
"] p.<XR.x.<X<XH.Q.y.j.0.A.:XNXY.a.P.VXv.x.C O.w.q.C.gXU.v.v.S S 8 xXy.T G Y.L.5.B.m.w.x.S Y.dXK w.O.xX0.Y K 6.G 7.5.C.J.8.X.<X=X",
"_.Z.H.xXdXdX>XvXsXiXsXBX:XrXyXT.h.a.,XdXdX-X-XnXLXtXdXgXMXdX,X,XD.-X^./.0.yXpXsXxXR.M.D.xXLXVXxXm.<XuX,XcXtX-XvXpXC.;X:X+X+XcXcX",
"3.) H K  .H.K H.~.E.7.a.x v a a 1.6.Y C.T.N.P !.NXN.x.Y.xXH.<XT.w.^.y.Q.B.B.F.9.CXCXT N.iX~.Q.^.^.B.7.K LXZ.p.' #X%.&.< 2 X.H  .",
"z.2.w.C K O.O.C.iX/.q.p.U ,.M I U J H F.eXq.G P.uXF.M.w.xXM.m.N.r.7.B.B.y.e.C.G CX^.r.I Q.Q.Q./.^.P.r.H cXo.E 3 9X7 / @ X * A 5.",
"' X...O.| ..U.C.~.W.A.s.F 5.x a H J ` C.D._ | L.,X0.0.| uXK K N.q.F.G.6.Y 8.=.8 R.I.6.5.h.7.Q.Q.!.h.a.c bX{ 3 7 (.N +.> @ > g k ",
"SX>X;X>XD.cXvXrX~.,.u.;XC.I.!.K.L.vXeXP.A.C.X.S.*XS.H.eXNXN.uXCXuX!.P.F.eXa.%.oXH.G !.~.F.e.P B.eX9.J.a.:X8.l ] aX9X8X1XDX=.! L.",
"AXb.O.U.S S.<.y.4.4.9.H S uXyXq.H uXG.,.3.9.h A Z L.W.~.~.B./.Q.uXN.NX@X@Xp.@ / G J E.Q.~.wXQ.y.~.r.eXG.y.Q.E.4.3.3.BXaXpXa.-X:X",
"c.n.O.D.@ D 4.,.4.,.<.H G T.I.G.7.r.1.U b ) D k = yXW.E.E.Q.Q.y.B.N.h.F _ $ . s.8.6.E.R 4.Q.t.I 3.,.qX6.y.R R y.U m uXq.5.H F.0.",
"} $.} x.# = F ,.v 1.P Y C L.!.y.5.k.<.>.D F h h % Y.r.t.E.E.l.y.B.I.6.F X.2 # &. .P I R E.W.y.y.e.h.yX1.W.E.4.t.U U iX~.4.I P.D.",
"%X%X.XtX' nXeXr.J.K.e.P.L.HXBXyXqXaX0.8.9.G.a. .G vXuX~.~.G.j.G.!.I.r.) ( W _ A.:XtX!.N.W.W.t.6.` 9.+X8.~.W.E.t.r.~.ZXj.t.m P.C.",
"A.A.J.a.` rX+XJXtXH.=XHX6XMXvX,XHX:XA.rX@XwX@X:X0.tXNXZXiXr.J.NXVXVXNXNXnXSXbXmXmXMXvXVXZX/.eXNXaX@X,XcXLXyXuXyXVXxXtXG.j.U P.,X",
"c f i F x i 4 5X-X .X.4X....Q E | p.| L.9.v C g  .` m.uX6.x h  .7.6.I F F [ ] ] S M.O.0.F.5. .q.` X.0.X.+X_ F H M.gXF.F e.1.H D ",
"( c h ) x 9.4 4Xq.9.f.9Xd.] < j &.` 8.L.3.l.8.k 9.9.h.h.J U ` 8.I 4.W.m 4.3.g.f F F.G 7.r.G.<.) 2.U 3.>.wXz m F -X0.9.4.l.,.g.g.",
"$ A j ( g Z ~ JX2.1.f.$X&.k # $ ( ' ! @XwXj.g.9.u.8.9.r.J h h k.U 4.m m V m V n J F P eXP ,.F c V V z V $Xb V n FX8.) 3.g.>.) ) ",
"oXOXXXb.b.JXKXDXSXwX:XaXbXnXrXtX:XbXSXVXyXyXaXSXSXS.L.pX-X_ _ A.9.yXsXsXJ.a.@XyXa.h.sXZXk.k.@XJ._.d.k.$XaX2.3.J.LXpX` u.J.A.Z.4X",
"'.1X1 8 w kXXX^ s.+XL.X.=.J.<.` p.4XZ.X.` 5.9.8.b.2 2.a.` g _ ( ` 8.wX~.8.( pXA.a.h.!.W.j.g.d.A.i.a.:Xd.3.i.>.k.8.f.A.A.X.| 6X&X",
"/ }.&.%.w -.4 S Z A G S i ` y.4.$X_.f D <.h z d ! * >.,.u s B B F b 3.3.g.n x >.e.g.W.4.,.>.u D f J.A.D V n z n M V n u % % v X.",
"5 }.( _ @ ~ 4 2 { ..C L 8.wXI l.z.] u.F w.a.% a.6Xj l c f s n z z 9.!.<.l.x u 8.9.>.g.3.v 3.u 8.k p.nXh >.n z >.V m 2.) u . 9.p.",
"lX7XZ.p.}.8X#.%XGX%X9 JXJXaXK.@X|.&.pXHXIXIXC.AXUXhXaXrXrX$X:X$X:XJXFXA.a.8.p.+XA.A.aX$Xd.@X|.d.A.HXHX..d.9.9.` i.i.rX=.A =.FX7X",
"Z.X.u.K.p.s.oX%.%XS o.SX|.&.8.J.&.^ *.cXL.=XD.AXkX2X#XaXSXA.$XHXgX.X=XmXrXi.+X,X6XS.aX:XpXpXnXaXFXFXpXIXIXmXnX:XaXpX:X=XS.6XnX6X",
"x >.m U v u [ / k % N ] ' ; W _ 3 l ^ Z.p G g *Xx.Z * X.p.= j d.J.F 2.F v >.z [ |.d z u h h i x p f p <.tX8.i z D h h A g k c d.",
"v n v U z k W B k j _.8X< # @ j ; # ! =XF q.S >X8 w * s.V.= * W +X] 2.v v >.B ` |.f l z f.D D F J >.J % L.+Xk.a.$X] D i g ( ] g.",
"J.p.8.o.Q *.3Xn.%.j :.;.5 1X#XW +.W n.cXm.F.D.AX{ 9 8 AXdX9 1 n.;XX.! S A A _ ..}.j ( ] $XA X.G G o.| o.mX*X! p.;XX...Z ! A ( [ ",
"S.| | } *X[.`.3XjXb.'.} %X&X4XZ.KXJXGXmXvXtX,XGXAXGXKXPXPXkXkXGXAX.X*XD.;X*XZ.2X7XoXwX$X:XpXbX,X>XMXGXGXGX2X X;XZ..XhX5XbX4Xd.f."
};
