/* XPM */
static char *_2955fac710e42e7ea89dbcd821bf81bP9ITIrkJFCKFLDbK[] = {
/* columns rows colors chars-per-pixel */
"64 64 21 1 ",
"  c None",
". c #08A048",
"X c #0BA14A",
"o c #0EA34C",
"O c #18A653",
"+ c #22A95A",
"@ c #2DAD62",
"# c #40B570",
"$ c #55BD7F",
"% c #68C48E",
"& c #76C999",
"* c #86CFA4",
"= c #99D7B2",
"- c #ABDEC0",
"; c #B8E3CB",
": c #CBEBD8",
"> c #DBF1E3",
", c #E4F4EB",
"< c #ECF8F1",
"1 c #F5FBF8",
"2 c white",
/* pixels */
"                                                                ",
"                                                                ",
"                                                                ",
"                                                                ",
"                                                                ",
"                                                                ",
"                                                                ",
"                                                                ",
"oooooooooooooooooooooooooooooooooooooooooooooooooooooooooooooooo",
"XXXXXXXXXXXXXXXXXXXXXXXXXXXXXXXXXXXXXXXXXXXXXXXXXXXXXXXXXXXXXXXX",
"XXXXXXXXXXXXXXXXXXXXXXXXXXXXXXXXXXXXXXXXXXXXXXXXXXXXXXXXXXXXXXXX",
"XXXXXXXXXXXXXXXXXXXXXXXXXXXXXXXXXXXXXXXXXXXXXXXXXXXXXXXXXXXXXXXX",
"XXXXXXXXXXXXXXXXXXXXXXXXXXXXXXXXXXXXXXXXXXXXXXXXXXXXXXXXXXXXXXXX",
"XXXXXXXXXXXXXXXXXXXXXXXXXXXXXXXXXXXXXXXXXXXXXXXXXXXXXXXXXXXXXXXX",
"XXXXXXXXXXXXXXXXXXXXXXXXXXXXXXXXXXXXXXXXXXXXXXXXXXXXXXXXXXXXXXXX",
"XXXXXXXXXXXXXXXXXXXXXXXXXXXXXXXXXXXXXXXXXXXXXXXXXXXXXXXXXXXXXXXX",
"XXXXXXXXXXX................XXXXXXXXXXXXXXXXXooooooXXXXXXXXXXXXXX",
"XXXXXXXXXX@%$$$$$$$$$$$$$$$OOOOOXXXXXXXXXXX+=;;;;;@XXXXXXXXXXXXX",
"XXXXXXXXXo;222222222222222>$&*&%oXXXXXXXXX.+>22221@oXXXXXXXXXXXX",
"XXXXXXXXXo;222222222222222,$&*&$XXXXXXXXXX.+>22221#oXXXXXXXXXXXX",
"XXXXXXXXXo;222222222222222,@+++oXXXXXXXXXX.+>22221#oooXXXXXXXXXX",
"XXXXXXXXXo;222222222222222,@.XXXXXXXXXXXXX.+>22221@.ooXXXXXXXXXX",
"XXXXXXXXXo;2222221-=>22222,@.XXXXXXXXXXXXX.+>22221#.XXXXXXXXXXXX",
"XXXXXXXXXo;222222=o.$12222,@.XXXXXXXXXXXXX.+>22221#XXXXXXXXXXXXX",
"XXXXXXXXXo;222222&..@,2222,@.XXXXXXXXXXXXX.+>22221#XXXXXXXXXXXXX",
"XXXXXXXXXo;222222:@+*22222,@.XXXXXXXXXXXXX.+>22221#oXXXXXXXXXXXX",
"XXXXXXXXXo;2>*%%%%%*122222,@.XXXXXO$OXXXXX.+>22221#oXXXXXo$+.XXX",
"XXXXXXXXXo;,@..X..XO-22222,@.XXXXXO:*oXXXX.+>22221@.XXXXX%>@.XXX",
"XXXXXXXXXo;*o*;$.XoX@>2222,@XXXXXXO:2*oXXX.+>22221#XXXXX%1,@.XXX",
"XXXXXXXXXo=@#11$.Xo@X$>><2,@.XXXXXO:21*oXX.+>22221@.XXX%<2,@.XXX",
"XXXXXXXXXo*#;2:OX.@:@oO+#,,@.XXXXXO:221*oXX+>22221#oX.%<22,@.XXX",
"XXXXXXXXXo;122&XX.*2,%$#%<,@.XXXXXO:2221*o.+>22221#o.%<222,@.XXX",
"XXXXXXXXXo;221#XXO:2221122,@.XXXXXO:22221*o+>22221@o$<2222,@XXXX",
"XXXXXXXXXo;22<@oXO;2222222,@.XXXXXO:222221&+>2222<#$<22222,@.XXX",
"XXXXXXXXXo;22>++@o$1222222,@.XXXXXO:2222221=>22221*<222222,+.XXX",
"XXXXXXXXXo;22:+#;OO:222222,@.XXXXX.$,222222122222212222221&oXXXX",
"XXXXXXXXX+=>>=X@<$.%222222,@.XXXXXX.$,2222222222222222221&XXXXXX",
"XXXXXXXX+@OOOoX$2-o+:22222,@.XXXXXX..$,22222222222222221&XXXXXXX",
"XXXXXXXX@@#$$$$-2<@o&22222,@.XXXXXXXX.$,222222222222221&XXXXXXXX",
"XXXXXXXooO;2222222=o+>2222,@.XXXXXXXXX.$,2222222222221&XXXXXXXXX",
"XXXXXXXXoo;2222222,@X*2222,@.XXXXXXXXXX.$,22222222221&XXXXXXXXXX",
"XXXXXXXXoO=,>>>>,>,*o@:,>,:@.XXXXXXXXXXX.$,222222221&XXXXXXXXXXX",
"XXXXXXXXX@-;;;;;;;;*@@-;;;%oXXXXXXXXXXXXX.$,2222221&XXXXXXXXXXXX",
"XXXXXX.@=<22222222-+@;22:%OXXXXXXXXXXXXXXX.$,22221&XXXXXXXXXXXXX",
"XXXXXO%>222222222=+@>2,*+.XXXXXXXXXXXXXXXXX.$,221&XXXXXXXXXXXXXX",
"XXXXX$==========&Oo%=*#XXXXXXXXXXXXXXXXXXXXX.$,1&XXXXXXXXXXXXXXX",
"XXXXX.........X.XXXX.XXXXXXXXXXXXXXXXXXXXXXXX.$%oXXXXXXXXXXXXXXX",
"XXXXXXXXXXXXXXXXXXXXXXXXXXXXXXXXXXXXXXXXXXXXXX..XXXXXXXXXXXXXXXX",
"XXXXXXXXXXXXXXXXXXXXXXXXXXXXXXXXXXXXXXXXXXXXXXXXXXXXXXXXXXXXXXXX",
"XXXXXXXXXXXXXXXXXXXXXXXXXXXXXXXXXXXXXXXXXXXXXXXXXXXXXXXXXXXXXXXX",
"XXXXXXXXXXXXXXXXXXXXXXXXXXXXXXXXXXXXXXXXXXXXXXXXXXXXXXXXXXXXXXXX",
"XXXXXXXXXXXXXXXXXXXXXXXXXXXXXXXXXXXXXXXXXXXXXXXXXXXXXXXXXXXXXXXX",
"XXXXXXXXXXXXXXXXXXXXXXXXXXXXXXXXXXXXXXXXXXXXXXXXXXXXXXXXXXXXXXXX",
"XXXXXXXXXXXXXXXXXXXXXXXXXXXXXXXXXXXXXXXXXXXXXXXXXXXXXXXXXXXXXXXX",
"XXXXXXXXXXXXXXXXXXXXXXXXXXXXXXXXXXXXXXXXXXXXXXXXXXXXXXXXXXXXXXXX",
"XXXXXXXXXXXXXXXXXXXXXXXXXXXXXXXXXXXXXXXXXXXXXXXXXXXXXXXXXXXXXXXX",
"                                                                ",
"                                                                ",
"                                                                ",
"                                                                ",
"                                                                ",
"                                                                ",
"                                                                ",
"                                                                "
};
