/* XPM */
static char *e6c2f5c9efd440cce61d281c75a3d3ddpBOZ521CN5iHzcU0[] = {
/* columns rows colors chars-per-pixel */
"64 64 2 1 ",
"  c None",
". c #F8D64E",
/* pixels */
"                                                                ",
"                                                                ",
"                                                                ",
"                                .                               ",
"                               ..                               ",
"                               ..                               ",
"                               ...                              ",
"                               ...                              ",
"                              ....                              ",
"                              .....                             ",
"                              .....                             ",
"                             ......                             ",
"                             .......                            ",
"                             .......                            ",
"                            ........                            ",
"                            .........                           ",
"                            .........                           ",
"                           ..........                           ",
"                           ...........                          ",
"                           ...........                          ",
"                          ............                          ",
"                          .............                         ",
"                          .............                         ",
"                         ..............                         ",
"                         ...............                        ",
" .............................................................. ",
"  ............................................................  ",
"    .........................................................   ",
"     ......................................................     ",
"       ...................................................      ",
"        .................................................       ",
"         ..............................................         ",
"           ...........................................          ",
"            ........................................            ",
"             ......................................             ",
"               ...................................              ",
"                ................................                ",
"                  .............................                 ",
"                   ...........................                  ",
"                    .........................                   ",
"                    .........................                   ",
"                    .........................                   ",
"                   ..........................                   ",
"                   ...........................                  ",
"                   ...........................                  ",
"                  ............................                  ",
"                  .............................                 ",
"                  .............................                 ",
"                 ..............................                 ",
"                 ..............   ..............                ",
"                 ............      .............                ",
"                ............         ...........                ",
"                ..........            ...........               ",
"                .........              ..........               ",
"               .........                 ........               ",
"               .......                    ........              ",
"               ......                       ......              ",
"              ......                         .....              ",
"              ....                            .....             ",
"              ...                               ...             ",
"             ..                                  ..             ",
"             .                                    .             ",
"                                                                ",
"                                                                "
};
