/* XPM */
static char *_37674cfb00240e4e644c8adb1991ec39pChPhcEwZ9Tsbaf[] = {
/* columns rows colors chars-per-pixel */
"64 64 208 2 ",
"   c None",
".  c black",
"X  c #010101",
"o  c #020202",
"O  c gray1",
"+  c gray2",
"@  c #060606",
"#  c #070707",
"$  c gray3",
"%  c #090909",
"&  c gray4",
"*  c #0C0C0C",
"=  c gray5",
"-  c #0E0E0E",
";  c gray6",
":  c #101010",
">  c #111111",
",  c #131313",
"<  c gray8",
"1  c #151515",
"2  c #161616",
"3  c gray9",
"4  c #181818",
"5  c gray10",
"6  c #1B1B1B",
"7  c gray11",
"8  c #1D1D1D",
"9  c #1E1E1E",
"0  c gray12",
"q  c gray13",
"w  c #222222",
"e  c #232323",
"r  c gray14",
"t  c #252525",
"y  c #282828",
"u  c gray16",
"i  c #2A2A2A",
"p  c gray17",
"a  c #2D2D2D",
"s  c #2F2F2F",
"d  c gray19",
"f  c #313131",
"g  c #323232",
"h  c gray20",
"j  c #343434",
"k  c gray21",
"l  c gray22",
"z  c #393939",
"x  c #3A3A3A",
"c  c gray23",
"v  c gray24",
"b  c #3F3F3F",
"n  c gray25",
"m  c #414141",
"M  c gray26",
"N  c #444444",
"B  c gray27",
"V  c #464646",
"C  c gray28",
"Z  c #484848",
"A  c #4B4B4B",
"S  c #4C4C4C",
"D  c gray30",
"F  c #4E4E4E",
"G  c gray31",
"H  c #505050",
"J  c #525152",
"K  c #535353",
"L  c gray33",
"P  c #555555",
"I  c #565656",
"U  c gray34",
"Y  c #585858",
"T  c #5A5A5A",
"R  c #5B5B5B",
"E  c #5D5D5D",
"W  c gray37",
"Q  c #5F5F5F",
"!  c gray38",
"~  c #626262",
"^  c gray39",
"/  c #646464",
"(  c #656565",
")  c gray40",
"_  c #686868",
"`  c DimGray",
"'  c #6A6A6A",
"]  c #6C6C6C",
"[  c #6D6D6D",
"{  c #6F6F6F",
"}  c gray44",
"|  c #717171",
" . c #727272",
".. c gray45",
"X. c #747474",
"o. c #767676",
"O. c #777777",
"+. c gray47",
"@. c gray48",
"#. c #7B7B7B",
"$. c gray49",
"%. c #7E7E7E",
"&. c gray50",
"*. c #808080",
"=. c #818181",
"-. c gray51",
";. c #848484",
":. c gray52",
">. c #868686",
",. c gray53",
"<. c #888888",
"1. c #898989",
"2. c #8B8B8B",
"3. c gray55",
"4. c #8D8D8D",
"5. c #8E8E8E",
"6. c gray56",
"7. c #909090",
"8. c #929292",
"9. c #939393",
"0. c gray58",
"q. c gray59",
"w. c #979797",
"e. c gray60",
"r. c #9A9A9A",
"t. c #9B9B9B",
"y. c gray61",
"u. c #9D9D9D",
"i. c gray62",
"p. c #A0A0A0",
"a. c gray63",
"s. c #A2A2A2",
"d. c gray64",
"f. c #A4A4A4",
"g. c #A5A5A5",
"h. c #A7A6A7",
"j. c gray66",
"k. c #A9A9A9",
"l. c #AAAAAA",
"z. c gray67",
"x. c #ACACAC",
"c. c gray68",
"v. c #AFAFAF",
"b. c gray69",
"n. c #B1B1B1",
"m. c #B2B2B2",
"M. c gray70",
"N. c #B6B6B6",
"B. c #B7B7B7",
"V. c gray72",
"C. c #B9B9B9",
"Z. c gray73",
"A. c #BBBBBB",
"S. c gray74",
"D. c gray",
"F. c gray75",
"G. c #C0C0C0",
"H. c #C1C1C1",
"J. c gray76",
"K. c gray77",
"L. c #C5C5C5",
"P. c #C6C6C6",
"I. c gray78",
"U. c #C8C8C8",
"Y. c gray79",
"T. c #CBCBCB",
"R. c gray80",
"E. c #CDCDCD",
"W. c #CECECE",
"Q. c gray81",
"!. c #D0D0D0",
"~. c #D2D2D2",
"^. c LightGray",
"/. c gray83",
"(. c #D5D5D5",
"). c gray84",
"_. c #D7D7D7",
"`. c gray85",
"'. c #DADADA",
"]. c gray86",
"[. c gainsboro",
"{. c #DDDDDD",
"}. c gray87",
"|. c gray88",
" X c #E1E1E1",
".X c #E2E2E2",
"XX c gray89",
"oX c #E4E4E4",
"OX c gray90",
"+X c #E7E7E7",
"@X c gray91",
"#X c #E9E9E9",
"$X c #EAEAEA",
"%X c gray92",
"&X c #EEEEEE",
"*X c #EFEFEF",
"=X c #F1F1F1",
"-X c #F3F3F3",
";X c gray96",
":X c #F6F6F6",
">X c gray97",
",X c #F8F8F8",
"<X c #F9F9F9",
"1X c gray98",
"2X c #FCFBFC",
"3X c #FDFDFD",
"4X c #FEFEFE",
"5X c white",
/* pixels */
"                                                      O O O O O O O + + O                                                       ",
"                                              + + + , w b n S L Y Z n l i , O O O                                               ",
"                                        + O , l [ 8.b.S.R.R.^.^.].).).^.H.c.*.Q a , O O                                         ",
"                                    + $ k O.c.).].).).].^.).).].).).^.^.].).).).R.g.( f + O                                     ",
"                                O $ n e.).).).).).).).).).).).).).).).).).).).).[.].).R.8.l $ +                                 ",
"                            O O f 8.R.[.).).).).].).].).).].).].).).).).).).).).).).).^.^.T.w.k O O                             ",
"                          O < O.H.^.^.^.).).).).).).].).).].).).).).).).).).).).).).).].^.).^.L.[ 4 $                           ",
"                        O k c.).].^.].R.).).).).).).).).).).).).).).).).).).).).R.^.].[.].).^.).^.w.a O                         ",
"                    O + L A.).^.).).).).).).).).).].).).].).).].).].).).).).).).).].).).].).).].). XS.L O                       ",
"                  O O ~ T.].).).).).).).).).).).).).).].).).).).).).).).].).).].).).).).).).).).].[.).R.~ +                     ",
"                  + ` R.^.).^.[.).).).).).).).).).).).).).).).).).].].).).).).).).].].).).).).).).).]. X^.O.+                   ",
"                O ~ ^.).].).).^.).).).).).).).).).].).).].).).).).).).).).].).).).).).).].).).].^.).].].R.[...+                 ",
"              + L R.^.].).].).).).).).).).).).).).].).).).).).^.^.^.^.).).).).).).).).).).].).).).).).).].].T.Y O               ",
"            O f S.).^.).).).).).).].].).).].).).).).).).).).].].^.).).].).).).).).].).].).).).).).).).).].R.).L.n +             ",
"          O < p. X^.^.).).].].).).).).).).].).].].).).].[.].].].].].).).).).).).).].).).).).).].).).).).).R.R.#Xc.< O           ",
"          $ ..).).).^.].).).).).).).].).).).).).).).).).R.L.A.b.k.A.L.R.).).).).).).).).).].).).).).).).^.].^.[.[.*.$           ",
"        O l R.[._._.).].).)._._._._._._.).].^.).^.T.e.( k 4 8 = < , t l O.p.R.[. X^.].].).).).).).).).).).).).).].L.b O         ",
"        = 4.].)._._._._._._._._._._._.).).].).^.4.k + O O             + O < N 4.R.].R.).).).).).).).).).^.).).).R.^.p.,         ",
"      O N R. X)._._._._._._._._._._._._.).R.b.Z O O                         + $ n k.].].).).).).).).).).).).).).].).).S O       ",
"      $ w.].[.].)._._._.)._._._._._._._.].8.w O                                 O 3 7.).).).).).).).).).).).).).R.[.[.e.,       ",
"    O l L.).).).).).).).).).).).).[.[.).4.$ O                                     O $ *.R.[.).^.).).).).).).).).).^.].R.n O     ",
"    O ( ).).^.).[.].[.].].).).).).R.^.4.= O                                         O $ 3.).).].).).).).).).).).).^.).].4.+     ",
"    , b.).).).^.).).).).).).).).).).c.4 O                                             O 4 k.).).).).).).).).).).).).).^.A.4     ",
"  O b ).^.^.^.R.T.T.T.T.).).).).].R.k O                                                 $ N L.).).).).).).).).).).).).).R.Z O   ",
"  O +.).g.~ n i 8 w i f ~ +.b.].).$.O                                                     $ 1.].^.].^.).[.].^.).].].).^.].$.O   ",
"  + ` Z + a S +.*.O.` Q l 7 4 8.T.a O                                                     # f L.^.R.).A.j.;.( Q J Q ..+.4.O.+   ",
"  O $ b k.:X4X,X,X2X4X4X:XL.J 4 [ +                                                         $ w.).S.~ w 7 8 i k i i s s 4 $ O   ",
"O O i ).:X4X4X4X4X4X4X4X4X4X^.< 8 =                                                         O Y L.b i #.B.].-X&X@X#X%X%X)...O O ",
"O O ( 4X:X4X4X4X,X4X4X,X4X4X&Xd O O                                                         O l 4.$ v.4X4X4X4X4X4X,X2X4X4Xk.+ O ",
"O O ..4X4X4X4XR.} ` T.4X4X4X&Xd +                                                             8 n k #X4X4X4XH.b.].4X4X4X4Xk.+ O ",
"O O ;.2X4X4X Xk O O t  X4X4X&Xd O                                                             # 8 N :X4X4XS.4 = t 8.:X4X4Xk.+ O ",
"O + 8.,X4X4Xp.$ # O + b.4X,X&Xf O                                                             = $ ( 4X4X,XJ O O $ $ k.4X4Xk.+ O ",
"+ + e.,X4X4X8.O O O < R.4X,X].8 +                                                             O $ 4.2X2X-Xa O O O + 8.4X4Xc.$ O ",
"+ O 3.4X4X,X Xi O + +.4X4X,XR.< +                                                             O $ e.4X,X&XN O O O O p.4X4Xc.$ O ",
"O O O.4X2X4X4X).k.H.:X4X4X4XS.= +                                                             O + c.4X4X4XA., + + ~  X:X4Xk.+ O ",
"O O ` 4X4X4X4X,X,X:X4X4X4X4Xc.O + +                                                         O O + S.4X4X4X4XL.e.N.&X4X4X,Xp.O O ",
"O O w ).4X,X,X4X4X4X4X4X,XT.J t n O                                                         O k 8 *.,X4X4X4X4X4X4X4X4X4X4X<.O O ",
"  O $ J S.R.].).^.S.p.4.S 8 8 p.e.O                                                         $ e.[ = Q 8.k.k.z.k.k.j.g.g.y.p O O ",
"  O ` i = 4 8 < < 8 w 8 N $.c.].T.i O                                                     O i T.T.O.a a 4 4 4 < < < , , w , O   ",
"  O ;.R.b.y.4.4.4.y.N.T.^.#X].].).$.+                                                     O ;.].^.^.A.S.A.A.A.A.A.A.A.A.b.[ +   ",
"  + n R.).).).).).).).).).).).).].L.f O                                                 + f L.).].).).).].).).).).)._._.^.H O   ",
"    4 S.).).).).).).).).).).).).).).8., O                                             O = y.[.].).).).).).).).).).)._._.L.w     ",
"    + 4.).).).).).).).).).).).).).^.^...+                                             O +.[.).).).).).).).).).)._.)._._.1.+     ",
"    O n ).).).].).).).).).).).).].^.].T.` O O                                     O O O.R.^.].).).).).].).).].)._.]._._.S O     ",
"      O p.].R.].).).).).).).).).).).).).T.O.= +                                 O < O.^.).).^.).).).).).).).].). X]. Xy.4       ",
"      + J R.).^.).).).).).).).).).).).).^.).4.i O +                         + + k w.].[.).^.).).).).).).).).).).R.R.R.( O       ",
"        + p.+X^.).).).).).).).).).).).).].).[.L.+.t O O O             O O + w O.H.].R.R.).).^.^.).).).).).].).).T.].y.$         ",
"        O S ^.).).).).).).).).).).).).).).[.).).).A.;.N w , O + O $ < w J 1.A.).^.).^.].^.).).).).).).).).).].].R.^.Z O         ",
"          = ;. X).).].).).).].).).).).).).).).).).).).).S.b.y.8.8.p.b.H.R.^.].).).).).^.).^.^.).).).).).).].]. X).4.O           ",
"          O t A.[.).+X).).).).).).].].).).].).].].).].].).].[.[.).).).^.].].).).^.^.).).).).).).).).).^.).).[.[.H.i O           ",
"            + S T.).).[.].).).].).).).).).].).).).).).).).).).^.).^.).).).).).).).).^.).^.).).^.).).).).).].[.S.N $             ",
"              $ ( R.).].).).).).).).].).).).).).).].).).^.^.].].].].^.^.^.).^.).).^.).).^.).).).).).).).).).].( O               ",
"                O *.).^.T.].[.).).).).).].).).].).].).).].).).].).].).).).).).).).).).).).).).).).].].R. X[.$.$                 ",
"                O , ;.). X^.^.).].).).].).).).).).).).).).).).).).).).).).).).).).).).).).).).).).].).).[.;.= O                 ",
"                  O = *.T.^.R.).).).).).).).).).).).).].).).).).).].].).).).).).).).).).).).).).^.H.^.[.$., O                   ",
"                    O O [ H.].].).].).).].).).].).].).).].).).].).).).).).).).).).).).).).).).).]. XH.[ $ O                     ",
"                        + S c.].[.^.].).).).).)._._._._._._._._.).).).).).).).).).).).).).].].R.XXS.J $                         ",
"                          O t 4.R.].^.).).).).)._._._._._._._._.).].).].].).).].).].].).).].].R.2.t O                           ",
"                            O = S k.].).).).).]._._._._._._._._.).].).).).).).).).).).).R.].p.S O O                             ",
"                                O < Y k.).].).)._._._._._._.).).).).).).).).].).).).].).c.Y < O                                 ",
"                                    $ = N *.H.^.[._.).).^.).).].].].].].).).).].).S.8.Z , O                                     ",
"                                        O O w S $.p.H.!.).].[.[.].].).).).H.p.*.Y 8 O O                                         ",
"                                              O O + 8 l J R ` [ ..( Q L l w $ O O                                               ",
"                                                    O O O O O O O O O + O O                                                     "
};
