/* XPM */
static char *result[] = {
/* columns rows colors chars-per-pixel */
"64 64 3 1 ",
"  c #333233",
". c #464646",
"X c #B4B4B4",
/* pixels */
"XXXXXXXXXXXXXXXXXXXXXXXXXXXXXXXXXXXXXXXXXXXXXXXXXXXXXXXXXXXXXXXX",
"...  ....X....     ........X.......... X...............X........",
".... ....X....... .........X. .........X...............X...   ..",
".........X.....   .........X...........X......  .......X.... ...",
".. ......X............ ... X.... ..... X...      ......X..    ..",
".........X...........  ... X.......... X...............X........",
".........X.................X.........  X...............X........",
"XXXXXXXXXXXXXXXXXXXXXXXXXXXXXXXXXXXXXXXXXXXXXXXXXXXXXXXXXXXXXXXX",
".................X...............X..............X.............X.",
"....... .........X...............X............ .X.............X.",
"...     ........ X.....    ......X...     .... .X.. ..........X.",
"... .......      X..    ..... ...X....... ...  .X..     ......X.",
"  ............ ..X..........  ...X........... ..X.............X ",
".........        X...............X..............X.............X.",
"XXXXXXXXXXXXXXXXXXXXXXXXXXXXXXXXXXXXXXXXXXXXXXXXXXXXXXXXXXXXXXXX",
".....X................X.................    X.............X.....",
".....X................X..    .............. X.........  ..X.....",
".....X........... ....X.....    ............X... ......  .X... .",
".....X.....  ....  ...X.....................X... ..  .....X... .",
".....X.....  ... .....X.......  ....   .....X...  .. .....X. . .",
"  ...X.......   ......X........      .......X.......  ....X. .. ",
".....X................X.....................X.............X.....",
".....X................X.....................X.............X.....",
"XXXXXXXXXXXXXXXXXXXXXXXXXXXXXXXXXXXXXXXXXXXXXXXXXXXXXXXXXXXXXXXX",
"........X.......................X.............X..............X..",
"........X.......................X.............X..............X..",
"..   ...X............  .........X.  .      ...X...     ...  .X..",
"....   .X.....       ..  .......X..   ........X.......   ....X..",
" .......X.......... ............X.............X..............X. ",
"........X.......................X.............X..............X..",
"XXXXXXXXXXXXXXXXXXXXXXXXXXXXXXXXXXXXXXXXXXXXXXXXXXXXXXXXXXXXXXXX",
"...X..........X...............X............X   ...........X.....",
"...X...... ...X...............X...     ....X . ...........X.....",
"...X....... ..X...............X.......  ...X.   ..  ......X.....",
"...X.  .... ..X... ..   ......X............X. .  .. .. ...X. ...",
"...X.. .......X... ....   ....X............X....... .. ...X.  ..",
" ..X...  .....X...............X....      ..X.......... ...X..   ",
"...X..........X...............X............X..............X.....",
"XXXXXXXXXXXXXXXXXXXXXXXXXXXXXXXXXXXXXXXXXXXXXXXXXXXXXXXXXXXXXXXX",
"....    X.............X................X..............X.........",
"....... X........    .X................X..............X.........",
"..    ..X.. .. ...... X.   ....... ....X.... ..    ...X..  .....",
"..... ..X..  .. ....  X...   ....  .. .X...      .....X...   ...",
"..  ....X......   ....X.........  ... .X..............X.........",
"........X.............X................X..............X.........",
"XXXXXXXXXXXXXXXXXXXXXXXXXXXXXXXXXXXXXXXXXXXXXXXXXXXXXXXXXXXXXXXX",
"......X..........X..............X..............X.............X..",
"....  X..........X........... ..X... ... ......X.............X..",
" .... X...  ..  .X.. ..  ....  .X... ..    ....X..   ..   ...X. ",
".  ...X ... ... .X.. ..   ......X... ... . ....X....   ..  ..X..",
"......X..... .. .X..   .........X.....        .X.......... ..X..",
"......X..........X..............X..............X.............X..",
"XXXXXXXXXXXXXXXXXXXXXXXXXXXXXXXXXXXXXXXXXXXXXXXXXXXXXXXXXXXXXXXX",
"X......................X................X..............X........",
"X...   .. .............X.......... .....X..............X...... .",
"X  ..  .. ... .........X...   ...   ....X..  ....  ....X..  .. .",
"X.........  ..    .....X.....    ..  ...X...   ... ....X... ....",
"X......................X................X..............X........",
"XXXXXXXXXXXXXXXXXXXXXXXXXXXXXXXXXXXXXXXXXXXXXXXXXXXXXXXXXXXXXXXX",
"...X..........X.................X..................X........X...",
"...X... ......X... ......... ...X.... .............X. .. ...X. .",
" ..X....   ...X... .. .  .......X....  ..      ....X... ....X.. ",
"...X..........X.................X.....    .........X..... ..X...",
"XXXXXXXXXXXXXXXXXXXXXXXXXXXXXXXXXXXXXXXXXXXXXXXXXXXXXXXXXXXXXXXX"
};
